<?xml version="1.0" encoding="utf-8"?>
<!-- Generator: Adobe Illustrator 21.1.0, SVG Export Plug-In . SVG Version: 6.00 Build 0)  -->
<svg version="1.1" id="Слой_1" xmlns="http://www.w3.org/2000/svg" xmlns:xlink="http://www.w3.org/1999/xlink" x="0px" y="0px"
	 width="264px" height="88px" viewBox="0 0 264 88" style="enable-background:new 0 0 264 88;" xml:space="preserve">
<style type="text/css">
	.st0{fill:#FFFFFF;}
</style>
<title>default-skin 2</title>
<path class="st0" d="M120,66l-20,20v-2l18-18l-18-18v-2L120,66z"/>
<path class="st0" d="M164,84.1v2l-20-20l20-20v2l-18,18L164,84.1z"/>
<path class="st0" d="M22.5,66.1l11.3-11.3c0.2-0.2,0.2-0.4,0-0.5c-0.2-0.2-0.4-0.2-0.5,0L22,65.6L10.7,54.2c-0.2-0.1-0.4-0.1-0.5,0
	c-0.1,0.1-0.1,0.4,0,0.5l11.3,11.3L10.1,77.4c-0.2,0.1-0.2,0.4,0,0.5c0.1,0.2,0.4,0.2,0.5,0c0,0,0,0,0,0L22,66.6L33.3,78
	c0.2,0.1,0.4,0.1,0.5,0c0.1-0.1,0.1-0.4,0-0.5L22.5,66.1z"/>
<path class="st0" d="M165.9,33.2l-7.3-7.3c1.5-1.7,2.4-3.9,2.4-6.3c0-5.2-4.3-9.5-9.5-9.5c-5.2,0-9.5,4.3-9.5,9.5s4.3,9.5,9.5,9.5
	c2.4,0,4.7-0.9,6.3-2.4l7.3,7.3c0.1,0.1,0.2,0.1,0.4,0.1c0.1,0,0.3,0,0.4-0.1C166.1,33.7,166.1,33.3,165.9,33.2z M151.5,28
	c-4.7,0-8.5-3.8-8.5-8.5s3.8-8.5,8.5-8.5c4.7,0,8.5,3.8,8.5,8.5S156.2,28,151.5,28z M156.5,19h-10c-0.3,0-0.5,0.2-0.5,0.5
	s0.2,0.5,0.5,0.5h10c0.3,0,0.5-0.2,0.5-0.5S156.8,19,156.5,19z"/>
<path class="st0" d="M18.2,10.1h-7.6c-0.3,0-0.5,0.2-0.5,0.5v7.6c0,0.3,0.2,0.5,0.5,0.5c0.3,0,0.5-0.2,0.5-0.5v-7.1h7.1
	c0.3,0,0.5-0.2,0.5-0.5C18.7,10.3,18.5,10.1,18.2,10.1z M33.5,10.1h-7.6c-0.3,0-0.5,0.2-0.5,0.5s0.2,0.5,0.5,0.5h7.1v7.1
	c0,0.3,0.2,0.5,0.5,0.5s0.5-0.2,0.5-0.5v-7.6C34,10.3,33.8,10.1,33.5,10.1z M33.5,25.3c-0.3,0-0.5,0.2-0.5,0.5V33h-7.1
	c-0.3,0-0.5,0.2-0.5,0.5s0.2,0.5,0.5,0.5h7.6c0.3,0,0.5-0.2,0.5-0.5v-7.6C34,25.6,33.8,25.3,33.5,25.3z M18.2,33h-7.1v-7.1
	c0-0.3-0.2-0.5-0.5-0.5S10,25.6,10,25.9v7.6c0,0.3,0.2,0.5,0.5,0.5h7.6c0.3,0,0.5-0.2,0.5-0.5C18.7,33.2,18.5,33,18.2,33z"/>
<path class="st0" d="M62.1,10.1c-0.3,0-0.5,0.2-0.5,0.5v7.1h-7.1c-0.3,0-0.5,0.2-0.5,0.5c0,0.3,0.2,0.5,0.5,0.5h7.6
	c0.3,0,0.5-0.2,0.5-0.5v-7.6C62.7,10.3,62.4,10.1,62.1,10.1z M69.8,18.8h7.6c0.3,0,0.5-0.2,0.5-0.5c0-0.3-0.2-0.5-0.5-0.5h-7.1v-7.1
	c0-0.3-0.2-0.5-0.5-0.5s-0.5,0.2-0.5,0.5v7.6C69.2,18.5,69.5,18.8,69.8,18.8z M77.4,25.3h-7.6c-0.3,0-0.5,0.2-0.5,0.5v7.6
	c0,0.3,0.2,0.5,0.5,0.5s0.5-0.2,0.5-0.5v-7.1h7.1c0.3,0,0.5-0.2,0.5-0.5C77.9,25.6,77.7,25.3,77.4,25.3z M62.1,25.3h-7.6
	c-0.3,0-0.5,0.2-0.5,0.5c0,0.3,0.2,0.5,0.5,0.5h7.1v7.1c0,0.3,0.2,0.5,0.5,0.5c0.3,0,0.5-0.2,0.5-0.5v-7.6
	C62.7,25.6,62.4,25.3,62.1,25.3z"/>
<path class="st0" d="M121.9,33.1l-7.3-7.3c1.5-1.7,2.4-3.9,2.4-6.3c0-5.2-4.3-9.5-9.5-9.5S98,14.3,98,19.5s4.3,9.5,9.5,9.5
	c2.4,0,4.7-0.9,6.3-2.4l7.3,7.3c0.1,0.1,0.2,0.1,0.4,0.1s0.3,0,0.4-0.1C122,33.7,122,33.3,121.9,33.1z M107.5,28
	c-4.7,0-8.5-3.8-8.5-8.5s3.8-8.5,8.5-8.5s8.5,3.8,8.5,8.5S112.2,28,107.5,28z M112.5,19H108v-4.5c0-0.3-0.2-0.5-0.5-0.5
	c-0.3,0-0.5,0.2-0.5,0.5V19h-4.5c-0.3,0-0.5,0.2-0.5,0.5s0.2,0.5,0.5,0.5h4.5v4.5c0,0.3,0.2,0.5,0.5,0.5s0.5-0.2,0.5-0.5V20h4.5
	c0.3,0,0.5-0.2,0.5-0.5C113,19.2,112.8,19,112.5,19z"/>
<path class="st0" d="M73.1,69.1c-1.6,0-3,0.8-3.8,2.1L63,67.8c0.2-0.5,0.4-1.1,0.4-1.7c0-0.6-0.1-1.2-0.4-1.7l6.3-3.3
	c0.8,1.2,2.2,2.1,3.8,2.1c2.5,0,4.5-2,4.5-4.5c0-2.5-2-4.5-4.5-4.5c-2.5,0-4.5,2-4.5,4.5c0,0.6,0.1,1.2,0.4,1.7l-6.3,3.3
	c-0.8-1.2-2.2-2.1-3.8-2.1c-2.5,0-4.5,2-4.5,4.5c0,2.5,2,4.5,4.5,4.5c1.6,0,3-0.8,3.8-2.1l6.3,3.3c-0.2,0.5-0.4,1.1-0.4,1.7
	c0,2.5,2,4.5,4.5,4.5c2.5,0,4.5-2,4.5-4.5C77.6,71.1,75.6,69.1,73.1,69.1z M73.1,54.9c2.1,0,3.7,1.7,3.7,3.7c0,2.1-1.7,3.7-3.7,3.7
	s-3.7-1.7-3.7-3.7C69.4,56.5,71.1,54.9,73.1,54.9z M58.9,69.8c-2.1,0-3.7-1.7-3.7-3.7c0-2.1,1.7-3.7,3.7-3.7s3.7,1.7,3.7,3.7
	C62.6,68.2,60.9,69.8,58.9,69.8z M73.1,77.3c-2.1,0-3.7-1.7-3.7-3.7c0-2.1,1.7-3.7,3.7-3.7s3.7,1.7,3.7,3.7
	C76.9,75.7,75.2,77.3,73.1,77.3z"/>
</svg>
