<?xml version="1.0" encoding="utf-8"?>
<!-- Generator: Adobe Illustrator 27.0.1, SVG Export Plug-In . SVG Version: 6.00 Build 0)  -->
<svg version="1.1" id="Layer_1" xmlns="http://www.w3.org/2000/svg" xmlns:xlink="http://www.w3.org/1999/xlink" x="0px" y="0px"
	 width="100px" height="26px" viewBox="0 0 100 26" style="enable-background:new 0 0 100 26;" xml:space="preserve">
<style type="text/css">
	.st0{fill:#2B2B2B;}
</style>
<path class="st0" d="M0,11.2L12.1,6v3.6l-7.9,3.3l7.9,3.3v3.5L0,14.6V11.2z M26.5,5.7h-5V5.2c0-0.7,0.2-1.3,0.6-1.6s1-0.5,1.8-0.5
	c0.1,0,0.3,0,0.4,0s0.3,0,0.5,0.1v-3c-0.2,0-0.4-0.1-0.6-0.1c-0.3,0-0.5,0-0.7,0c-1.1,0-2.1,0.2-2.9,0.6s-1.4,1-1.9,1.8
	C18.3,3.3,18,4.2,18,5.3v0.5h-2.5v3.1H18v11.4h3.5V8.8h5v11.4H30V5.7h-2.2H26.5z M43,6c-0.8-0.5-1.8-0.7-2.8-0.7S38.3,5.5,37.5,6
	c-0.6,0.3-1.1,0.8-1.4,1.4V5.7h-3.2v14.5h3.5v-8.5c0-0.6,0.1-1.2,0.4-1.6c0.2-0.5,0.6-0.8,1-1.1s0.9-0.4,1.5-0.4s1.1,0.1,1.5,0.4
	c0.4,0.3,0.8,0.6,1,1.1s0.4,1,0.4,1.6v8.5h3.5v-9.3c0-1.1-0.2-2-0.7-2.9S43.8,6.5,43,6z M48.5,20.1H52V0h-3.5V20.1z M68.2,9.7
	c0.3,0.8,0.5,1.8,0.5,2.7c0,0.2,0,0.5,0,0.8s-0.1,0.5-0.1,0.7H58.2c0,0.5,0.2,1,0.3,1.4c0.3,0.7,0.8,1.2,1.4,1.6
	c0.6,0.4,1.3,0.6,2.1,0.6s1.5-0.2,2-0.5s1-0.8,1.3-1.4l2.8,1.4c-0.3,0.7-0.7,1.3-1.3,1.8c-0.6,0.5-1.3,0.9-2.1,1.2
	c-0.8,0.3-1.7,0.5-2.7,0.5c-1.5,0-2.8-0.3-3.9-1c-1.1-0.7-2-1.6-2.6-2.7c-0.6-1.2-0.9-2.4-0.9-3.8c0-1.5,0.3-2.7,0.9-3.9
	c0.6-1.1,1.5-2,2.6-2.7s2.3-1,3.6-1c1.1,0,2.1,0.2,3,0.6c0.9,0.4,1.6,0.9,2.2,1.5C67.5,8.1,67.9,8.8,68.2,9.7z M58.5,10.4
	c-0.1,0.3-0.2,0.6-0.2,0.9H65c0-0.3-0.1-0.6-0.2-0.9c-0.2-0.6-0.6-1.1-1.2-1.5c-0.5-0.4-1.2-0.6-1.9-0.6s-1.4,0.2-1.9,0.5
	C59.2,9.1,58.8,9.7,58.5,10.4z M77.4,15.6l-3.7-10H70l5.7,14.5l-0.3,0.8c-0.3,0.6-0.6,1.1-1,1.5S73.5,23,72.7,23
	c-0.3,0-0.6,0-0.9-0.1s-0.6-0.1-0.8-0.2v2.9c0.3,0.1,0.6,0.2,1,0.3c0.4,0.1,0.7,0.1,1.1,0.1c0.9,0,1.7-0.2,2.4-0.5
	c0.7-0.3,1.3-0.8,1.8-1.5s1-1.5,1.3-2.4l6.3-15.9h-3.7L77.4,15.6z M87.9,6v3.6l7.8,3.3l-7.8,3.3v3.5l12.1-5.2v-3.4L87.9,6z"/>
</svg>
